# xmcd
#
# Track frame offsets: 
#        150
#        10278
#        20750
#        31858
#        42426
#        52766
#        63213
#        74005
#        85463
#        97596
#        105668
#        116428
#
# Disc length: 1690 seconds
#
# Revision: 0
# Processed by: cddbd v1.5.2PL0 Copyright (c) Steve Scherf et al.
# Submitted via: ExactAudioCopy v0.99pb4
#
DISCID=9206980c
DTITLE=Sizemore, Charlie - Call of the Honky Tonk
DYEAR=2005
DGENRE=Bluegrass
TTITLE0=Call of the Honky Tonk
TTITLE1=There's Nothing Between Us
TTITLE2=String, Eraser and Blotter
TTITLE3=Melody of Love
TTITLE4=Mountain High, Valley Low
TTITLE5=In My Time of Dying
TTITLE6=Congratulations
TTITLE7=Standing Room Only
TTITLE8=Long Gone
TTITLE9=I See Through You
TTITLE10=A Little at a Time
TTITLE11=Wild Side of Life
EXTD=
EXTT0=
EXTT1=
EXTT2=
EXTT3=
EXTT4=
EXTT5=
EXTT6=
EXTT7=
EXTT8=
EXTT9=
EXTT10=
EXTT11=
PLAYORDER=
